<?xml version="1.0" standalone="no"?>
<!DOCTYPE svg PUBLIC "-//W3C//DTD SVG 20010904//EN"
 "http://www.w3.org/TR/2001/REC-SVG-20010904/DTD/svg10.dtd">
<svg version="1.0" xmlns="http://www.w3.org/2000/svg"
 width="2017.000000pt" height="2017.000000pt" viewBox="0 0 2017.000000 2017.000000"
 preserveAspectRatio="xMidYMid meet">
<metadata>
Created by potrace 1.16, written by Peter Selinger 2001-2019
</metadata>
<g transform="translate(0.000000,2017.000000) scale(0.100000,-0.100000)"
fill="#000000" stroke="none">
<path d="M9923 19403 c-13 -3 -23 -12 -23 -21 1 -9 7 -116 15 -237 7 -121 12
-221 10 -223 -1 -2 -39 68 -83 155 -44 87 -98 192 -119 233 l-40 75 -77 -2
c-43 -1 -79 -3 -81 -5 -2 -2 41 -744 44 -757 1 -5 142 7 148 12 2 3 -1 107 -8
231 -6 125 -10 229 -8 231 2 2 58 -100 124 -227 l120 -230 75 6 c41 4 76 8 77
10 1 1 -7 161 -17 356 -11 195 -20 365 -20 378 0 20 -4 22 -57 21 -32 -1 -68
-4 -80 -6z"/>
<path d="M10760 19379 c0 -13 -11 -172 -25 -354 -14 -181 -25 -345 -25 -362
l0 -33 74 0 74 0 5 33 c3 17 9 78 13 135 l7 103 36 -3 36 -3 47 -138 c25 -76
48 -140 50 -142 2 -3 41 -7 86 -11 l82 -7 -55 164 c-42 124 -52 165 -42 171 6
5 20 13 30 19 52 30 92 157 78 249 -19 124 -96 172 -296 184 -60 4 -125 10
-142 13 -30 5 -33 3 -33 -18z m293 -158 c30 -29 30 -119 1 -158 -20 -26 -26
-28 -90 -28 -63 0 -69 2 -67 20 0 11 4 60 8 109 l7 89 60 -6 c43 -4 67 -11 81
-26z"/>
<path d="M9251 19353 l-43 -4 5 -37 c3 -20 22 -190 43 -377 21 -187 39 -342
40 -343 1 -2 37 -1 79 3 l77 8 -6 46 c-7 57 -76 691 -76 703 0 8 -34 8 -119 1z"/>
<path d="M8811 19286 c-134 -22 -244 -44 -244 -49 1 -4 4 -32 8 -62 7 -63 4
-62 116 -44 39 6 72 9 74 7 2 -2 26 -140 53 -306 28 -167 52 -305 54 -307 2
-2 36 1 76 7 49 8 72 16 72 25 0 8 -20 139 -45 293 -25 154 -45 288 -45 299 0
13 9 21 28 25 26 5 120 19 134 21 16 1 17 15 7 73 -9 47 -15 62 -28 61 -9 -1
-126 -20 -260 -43z"/>
<path d="M11537 19316 c-91 -25 -174 -122 -197 -230 -54 -261 -39 -392 55
-474 94 -83 247 -92 344 -20 78 57 127 197 138 398 7 117 -10 187 -61 246 -62
72 -183 107 -279 80z m140 -146 c18 -11 35 -30 38 -45 3 -14 7 -36 10 -50 9
-41 -33 -291 -55 -335 -53 -105 -188 -82 -205 35 -8 52 16 240 41 317 29 88
101 121 171 78z"/>
<path d="M12070 19234 c0 -4 -36 -171 -81 -371 -44 -201 -79 -367 -77 -369 12
-12 279 -64 327 -64 120 1 201 92 201 227 0 50 -12 85 -39 112 l-21 21 30 15
c32 17 74 67 85 104 12 39 7 129 -10 160 -35 69 -90 97 -262 136 -65 14 -126
28 -135 31 -10 3 -18 2 -18 -2z m195 -175 c24 -6 51 -19 60 -29 36 -39 9 -142
-39 -154 -30 -7 -126 12 -126 25 0 9 27 129 36 157 4 15 13 15 69 1z m-43
-300 c64 -17 84 -71 54 -144 -21 -50 -51 -61 -126 -45 -33 7 -60 16 -60 21 0
4 9 49 21 99 24 103 12 95 111 69z"/>
<path d="M7975 19121 c-43 -11 -111 -47 -136 -74 -69 -72 -78 -192 -29 -377
47 -176 90 -249 172 -291 103 -53 260 -22 361 70 58 53 59 61 18 219 -21 78
-40 145 -44 148 -13 13 -257 -54 -252 -69 2 -7 9 -32 15 -56 11 -42 13 -43 43
-38 18 4 41 9 53 12 18 6 23 -1 38 -59 10 -36 15 -70 11 -75 -12 -20 -66 -42
-104 -44 -79 -3 -113 47 -162 240 -45 175 -34 237 48 264 59 19 84 3 139 -89
3 -5 128 29 136 36 12 12 -37 105 -73 139 -19 17 -47 37 -62 42 -32 12 -126
13 -172 2z"/>
<path d="M12765 19021 c-46 -21 -105 -82 -134 -139 -11 -22 -36 -93 -56 -158
-32 -105 -36 -129 -33 -206 3 -77 6 -91 33 -130 87 -124 269 -161 385 -77 57
42 95 106 137 234 49 152 56 269 20 348 -26 58 -65 93 -137 126 -59 27 -159
28 -215 2z m160 -125 c40 -17 65 -60 65 -115 0 -51 -64 -263 -96 -318 -14 -24
-33 -47 -44 -53 -27 -15 -77 -12 -111 5 -59 31 -64 104 -16 261 43 137 69 190
110 214 38 24 47 24 92 6z"/>
<path d="M7495 18973 c-38 -14 -71 -26 -73 -27 -1 -2 98 -289 153 -441 8 -22
-67 52 -247 245 l-117 124 -53 -18 c-110 -39 -103 -16 -48 -173 117 -335 203
-578 205 -581 2 -2 137 47 142 52 1 1 -29 94 -68 207 -39 112 -73 213 -76 224
-5 22 8 9 224 -220 l133 -139 70 23 c41 13 70 28 70 36 0 7 -43 138 -96 291
-132 383 -144 417 -146 419 -2 1 -34 -9 -73 -22z"/>
<path d="M13264 18873 c-31 -75 -28 -82 59 -115 42 -16 77 -35 77 -41 0 -6
-48 -138 -106 -294 -59 -156 -105 -286 -102 -288 2 -2 34 -16 71 -30 l67 -25
9 22 c5 13 54 142 110 286 56 145 103 267 106 272 3 4 43 -7 90 -25 47 -19 87
-30 89 -27 8 13 46 116 43 118 -6 5 -479 184 -487 184 -6 0 -17 -17 -26 -37z"/>
<path d="M6580 18843 c-31 -16 -39 -29 -69 -111 -18 -51 -31 -96 -27 -99 4 -4
31 5 60 19 41 20 55 33 59 55 11 50 20 57 55 39 41 -21 53 -20 114 6 l51 22
-82 38 c-107 49 -119 52 -161 31z"/>
<path d="M10218 18678 c-3 -70 -10 -104 -26 -135 -12 -23 -22 -46 -22 -50 1
-4 17 -16 38 -26 l37 -17 31 33 c45 49 74 133 74 217 l0 70 -64 0 -64 0 -4
-92z"/>
<path d="M6649 18657 c-116 -60 -165 -161 -140 -293 12 -66 21 -90 92 -240 90
-190 237 -249 402 -161 124 65 167 190 116 339 -38 113 -116 264 -160 308 -87
87 -199 105 -310 47z m192 -148 c42 -46 125 -223 142 -305 14 -69 -1 -106 -55
-133 -75 -37 -128 -2 -188 125 -58 121 -93 231 -85 270 8 47 56 84 107 84 35
0 47 -6 79 -41z"/>
<path d="M14050 18591 c0 -5 -27 -162 -61 -348 -34 -186 -63 -357 -66 -379
l-5 -41 62 -32 c35 -17 69 -31 75 -31 7 0 45 37 86 83 41 45 158 173 261 284
104 111 188 206 188 210 0 8 -132 73 -148 73 -9 0 -92 -95 -172 -196 -100
-126 -174 -214 -177 -210 -3 2 23 119 57 260 33 141 58 261 55 265 -6 10 -132
71 -146 71 -5 0 -9 -4 -9 -9z"/>
<path d="M6208 18440 c-31 -16 -59 -33 -62 -38 -2 -4 27 -66 65 -137 38 -71
69 -131 69 -134 0 -8 -189 -106 -193 -100 -2 2 -35 61 -72 132 -38 70 -72 127
-77 127 -17 0 -128 -65 -128 -75 1 -8 314 -599 348 -654 6 -12 21 -7 75 23
l68 38 -76 143 -75 144 97 50 c53 28 100 48 104 44 4 -5 37 -66 74 -138 38
-71 69 -131 70 -133 5 -6 135 63 135 71 0 8 -111 225 -150 292 -10 17 -55 102
-100 190 -84 163 -98 185 -109 185 -3 -1 -32 -14 -63 -30z"/>
<path d="M14820 18427 c0 -36 42 -202 53 -209 19 -13 86 -48 92 -48 8 0 6 173
-3 186 -7 12 -125 84 -136 84 -3 0 -6 -6 -6 -13z"/>
<path d="M15776 18345 c10 -8 23 -15 27 -15 5 0 14 -6 22 -12 25 -25 51 -44
103 -77 28 -19 52 -38 52 -41 0 -4 12 -13 28 -19 15 -6 42 -25 59 -41 18 -17
35 -30 39 -30 4 0 23 -15 44 -32 20 -18 70 -58 110 -88 41 -30 84 -65 97 -77
13 -13 28 -23 33 -23 6 0 10 -4 10 -8 0 -5 19 -23 43 -40 23 -17 58 -46 78
-64 20 -18 59 -51 85 -73 27 -22 74 -63 104 -90 30 -28 91 -82 135 -120 157
-138 618 -609 729 -745 15 -19 47 -55 70 -80 157 -169 535 -659 641 -829 17
-27 40 -62 53 -77 92 -113 421 -667 573 -964 35 -69 67 -126 72 -128 4 -2 7
-9 7 -15 0 -14 34 -91 70 -154 5 -10 25 -54 45 -98 19 -44 40 -88 46 -98 9
-17 35 -78 108 -257 17 -41 36 -83 42 -94 6 -10 18 -41 26 -69 8 -28 23 -66
34 -86 10 -20 19 -46 19 -58 0 -12 3 -23 8 -25 4 -1 15 -25 24 -53 9 -27 46
-135 81 -240 58 -170 107 -325 138 -440 6 -22 15 -51 20 -65 4 -14 17 -63 29
-110 12 -47 30 -119 41 -160 10 -41 26 -109 35 -150 8 -41 19 -88 24 -105 10
-31 39 -183 60 -310 6 -38 16 -87 21 -107 11 -44 30 -175 69 -488 41 -337 63
-691 64 -1075 1 -292 -11 -771 -19 -785 -2 -3 -6 -53 -10 -110 -3 -58 -12
-152 -20 -210 -7 -58 -19 -148 -25 -200 -18 -149 -39 -295 -61 -415 -11 -60
-24 -137 -30 -170 -9 -61 -13 -76 -50 -245 -60 -270 -151 -620 -189 -731 -11
-30 -20 -61 -20 -68 0 -7 -6 -27 -13 -44 -8 -18 -29 -79 -47 -137 -49 -156
-221 -617 -272 -730 -22 -47 -61 -137 -88 -205 -5 -11 -70 -144 -144 -295
-131 -264 -168 -337 -265 -507 -25 -43 -55 -96 -67 -118 -23 -43 -161 -268
-206 -338 -15 -23 -31 -49 -35 -57 -3 -8 -10 -17 -13 -20 -4 -3 -28 -36 -52
-75 -25 -38 -84 -124 -131 -190 -48 -66 -92 -128 -99 -139 -45 -65 -257 -338
-269 -346 -5 -3 -21 -24 -36 -47 -15 -22 -49 -65 -76 -94 -26 -30 -51 -59 -55
-64 -9 -13 -65 -77 -151 -174 -233 -260 -601 -627 -836 -832 -66 -57 -122
-106 -125 -109 -3 -3 -45 -39 -95 -80 -49 -41 -92 -77 -95 -80 -5 -5 -82 -65
-105 -82 -5 -4 -26 -20 -45 -35 -19 -16 -62 -49 -95 -73 -33 -25 -62 -48 -65
-51 -3 -3 -23 -18 -46 -32 -22 -14 -47 -31 -55 -39 -8 -7 -31 -24 -51 -38 -21
-14 -38 -28 -38 -32 0 -5 -7 -8 -15 -8 -8 0 -15 -4 -15 -9 0 -5 -14 -14 -30
-21 -16 -7 -30 -16 -30 -21 0 -5 -6 -9 -14 -9 -8 0 -16 -4 -18 -8 -1 -5 -46
-37 -98 -72 -52 -35 -96 -67 -98 -72 -2 -4 -9 -8 -16 -8 -8 0 -24 -8 -37 -18
-13 -11 -51 -33 -84 -51 -33 -18 -67 -39 -75 -46 -15 -13 -137 -87 -220 -133
-25 -13 -52 -30 -60 -37 -8 -6 -35 -22 -60 -34 -25 -12 -61 -32 -80 -43 -19
-11 -57 -31 -85 -45 -27 -14 -57 -28 -65 -33 -8 -5 -40 -21 -70 -37 -30 -15
-57 -30 -60 -33 -9 -10 -72 -40 -82 -40 -5 0 -23 -9 -38 -20 -16 -11 -46 -27
-67 -34 -46 -16 -176 -77 -183 -85 -3 -4 -30 -16 -60 -28 -30 -11 -64 -24 -75
-29 -19 -7 -18 -8 5 -12 14 -2 38 2 55 10 16 8 59 29 95 46 36 17 119 55 185
85 66 31 174 83 240 117 66 34 174 89 240 123 66 33 143 76 172 94 29 18 55
33 58 33 4 0 52 28 106 63 55 34 121 73 147 87 26 14 48 28 50 32 2 4 18 15
36 23 19 9 42 24 53 33 19 17 35 27 112 71 25 14 53 33 63 43 10 10 22 18 28
18 5 0 33 18 62 40 29 22 58 40 64 40 7 0 14 7 18 15 3 8 18 21 33 27 15 7 58
36 95 65 37 29 69 53 72 53 4 0 14 8 25 17 10 10 33 29 51 43 18 14 45 35 60
48 15 12 33 22 39 22 7 0 22 10 34 23 33 34 103 87 116 87 6 0 8 6 6 13 -3 6
13 23 35 36 22 14 37 27 35 29 -3 3 3 10 13 16 65 40 82 53 91 73 7 14 16 20
26 17 10 -4 15 0 15 10 0 9 6 16 13 16 7 0 30 18 51 40 21 22 42 40 47 40 5 0
9 7 9 16 0 8 4 13 8 10 5 -3 50 35 100 84 51 49 92 86 92 83 0 -3 22 18 48 46
26 28 53 51 60 51 7 0 12 4 12 10 0 10 135 143 151 148 5 2 9 9 9 15 0 7 16
23 35 37 19 14 35 29 35 34 0 5 17 26 38 46 95 94 132 136 132 147 0 7 3 12 8
10 7 -2 51 42 107 109 17 20 41 49 55 64 27 31 97 111 130 149 11 13 20 30 20
38 0 7 6 13 13 13 6 0 26 20 44 43 18 23 48 60 67 82 20 22 36 43 36 47 0 6
61 83 95 119 8 9 15 20 15 25 0 4 10 18 23 29 21 19 81 104 80 115 0 3 5 10
12 15 20 17 85 112 85 124 0 7 4 9 10 6 6 -3 7 1 4 9 -3 9 -1 16 5 16 6 0 41
46 78 102 37 57 70 104 74 106 5 2 5 10 2 19 -4 9 -2 14 3 11 5 -3 23 15 40
40 16 26 47 72 67 103 20 30 37 59 37 63 0 4 14 27 31 52 16 24 38 61 47 82
10 20 35 63 55 95 21 31 40 64 44 73 3 8 27 52 54 96 27 45 49 86 49 91 0 6 7
18 16 28 8 9 16 26 17 38 1 11 4 21 8 21 4 0 44 75 89 168 45 92 88 178 95
192 7 14 31 66 53 115 22 50 54 120 71 157 17 36 31 69 31 73 0 6 16 41 60
140 8 17 14 35 15 40 0 6 3 15 7 20 3 6 23 53 43 105 20 52 40 104 45 115 16
37 102 290 107 315 2 14 11 39 18 55 18 41 63 178 82 245 8 30 26 96 39 145
14 50 36 133 48 185 13 52 34 133 46 180 21 83 63 275 74 335 3 17 8 41 11 55
3 14 12 70 20 125 9 55 24 143 35 195 19 94 71 507 68 545 0 11 4 63 10 115
42 349 54 1023 26 1420 -7 96 -13 204 -15 240 -1 36 -6 81 -11 100 -4 19 -10
71 -13 115 -7 99 -22 242 -35 315 -5 30 -14 93 -21 140 -6 47 -15 90 -19 95
-4 6 -10 39 -14 75 -9 98 -76 454 -101 540 -2 8 -7 30 -10 49 -3 19 -8 37 -10
41 -2 4 -7 22 -10 41 -3 19 -13 59 -22 89 -8 30 -23 84 -34 120 -73 259 -99
348 -110 375 -4 11 -27 82 -50 157 -24 78 -47 134 -52 131 -6 -3 -7 -1 -3 6 9
13 -50 186 -100 296 -7 17 -23 55 -34 85 -22 59 -37 94 -51 123 -6 10 -23 56
-40 102 -17 47 -35 88 -40 91 -5 3 -9 13 -9 23 0 10 -7 24 -15 31 -8 7 -15 21
-15 32 0 10 -4 17 -9 14 -5 -4 -7 2 -4 12 2 11 -3 26 -11 35 -9 8 -16 19 -16
23 0 4 -9 25 -19 48 -11 23 -26 57 -35 76 -9 19 -21 42 -26 50 -5 8 -34 67
-65 130 -54 111 -64 130 -85 168 -5 9 -27 51 -48 92 -21 41 -59 110 -85 152
-26 42 -47 81 -47 87 0 6 -4 11 -10 11 -5 0 -12 11 -16 25 -3 14 -10 25 -15
25 -5 0 -9 4 -9 9 0 10 -86 153 -121 203 -10 15 -19 34 -19 43 0 8 -4 15 -8
15 -5 0 -18 18 -31 40 -12 22 -26 40 -30 40 -4 0 -15 16 -24 35 -9 19 -22 35
-27 35 -6 0 -9 4 -6 9 3 4 -3 16 -14 26 -11 10 -20 26 -20 35 0 10 -7 20 -15
24 -8 3 -15 12 -15 21 0 8 -4 15 -10 15 -5 0 -17 16 -26 35 -9 19 -20 35 -25
35 -5 0 -9 7 -9 15 0 8 -4 15 -8 15 -4 0 -21 23 -37 50 -16 28 -32 50 -36 50
-4 0 -10 8 -14 18 -3 9 -26 40 -50 67 -25 28 -45 56 -45 62 0 7 -11 20 -25 29
-14 9 -25 20 -25 25 0 5 -7 17 -15 27 -59 67 -75 88 -75 100 0 7 -6 15 -14 18
-7 3 -22 21 -32 40 -10 19 -22 34 -27 34 -12 0 -46 42 -47 58 0 7 -4 11 -8 8
-5 -3 -15 7 -23 22 -8 15 -38 50 -66 79 -29 28 -53 55 -53 59 0 8 -9 19 -69
83 -23 24 -41 46 -41 48 0 3 -29 35 -65 71 -36 36 -65 69 -65 73 0 5 -6 9 -14
9 -8 0 -17 9 -21 20 -3 10 -20 31 -36 44 -18 15 -27 31 -23 37 4 7 3 9 -4 5
-12 -7 -72 52 -72 72 0 6 -4 11 -9 10 -5 -2 -20 9 -34 25 -14 15 -31 27 -37
27 -5 0 -10 6 -10 14 0 7 -15 25 -32 39 -18 14 -85 75 -148 137 -63 62 -127
122 -141 133 -27 23 -194 170 -239 212 -14 12 -47 40 -75 60 -53 40 -65 50
-106 87 -14 13 -42 34 -62 48 -20 14 -37 28 -37 32 0 4 -21 22 -47 40 -58 39
-59 40 -104 78 -20 16 -39 30 -42 30 -3 0 -23 16 -44 35 -21 19 -42 35 -46 35
-5 0 -27 16 -50 35 -22 19 -45 35 -51 35 -5 0 -20 10 -32 21 -13 12 -32 27
-43 33 -11 6 -47 30 -80 54 -33 23 -68 42 -78 42 -15 0 -14 -2 3 -15z"/>
<path d="M14754 18147 c-38 -34 -125 -113 -194 -177 -69 -63 -169 -155 -222
-204 -54 -49 -98 -92 -98 -96 0 -8 116 -80 129 -80 4 0 29 23 56 50 27 28 55
50 63 50 7 0 43 -18 80 -40 37 -22 74 -43 82 -48 12 -7 11 -19 -7 -86 l-21
-77 36 -23 c49 -30 103 -58 106 -54 5 5 169 711 174 744 3 28 -1 33 -56 66
l-60 36 -68 -61z m-19 -297 c-17 -63 -36 -115 -41 -115 -15 0 -92 44 -99 56
-7 10 161 187 169 178 2 -2 -11 -56 -29 -119z"/>
<path d="M5468 18022 c-120 -76 -217 -143 -218 -150 0 -14 57 -102 67 -102 3
0 39 21 80 46 40 26 75 45 77 43 4 -6 290 -461 312 -497 l20 -32 65 39 c35 22
63 44 62 49 -1 4 -74 124 -162 265 -89 141 -161 259 -161 262 0 3 33 26 73 51
39 26 74 48 75 50 5 4 -61 114 -68 113 -3 0 -103 -62 -222 -137z"/>
<path d="M9890 18153 c-128 -6 -438 -34 -595 -54 -1617 -203 -3147 -922 -4330
-2035 -700 -659 -1217 -1343 -1644 -2175 -695 -1356 -971 -2888 -800 -4434
156 -1411 695 -2746 1567 -3880 695 -904 1594 -1659 2595 -2180 969 -504 1982
-786 3107 -865 199 -14 764 -15 987 -1 279 17 648 61 888 105 169 31 252 48
310 61 33 8 110 26 170 40 156 37 188 46 182 51 -3 3 -22 1 -44 -5 -21 -5 -69
-17 -108 -25 -38 -8 -111 -24 -160 -35 -50 -11 -108 -19 -130 -16 -35 4 -36 3
-10 -4 21 -6 24 -9 10 -10 -11 -1 -31 -4 -45 -7 -20 -4 -22 -3 -10 5 22 16 -1
13 -33 -4 -27 -14 -118 -34 -182 -40 -16 -1 -54 -7 -84 -13 -29 -5 -62 -7 -71
-5 -10 3 -21 0 -24 -6 -4 -6 -17 -11 -29 -11 -18 0 -19 2 -7 10 12 8 10 10 -8
10 -13 0 -21 -4 -18 -9 6 -9 -27 -21 -54 -20 -10 0 -8 3 5 9 20 8 20 9 -1 9
-11 1 -24 -2 -28 -6 -3 -4 -37 -8 -74 -9 -112 -4 -232 -15 -228 -22 5 -8 25
-8 -469 -11 -220 -1 -436 0 -480 4 -117 9 -287 24 -395 35 -52 6 -131 13 -175
16 -44 4 -88 10 -97 15 -9 5 -34 9 -55 9 -21 0 -63 6 -93 14 -30 7 -98 19
-150 26 -52 6 -106 16 -120 21 -14 5 -41 11 -60 14 -99 14 -168 29 -190 40
-14 7 -54 16 -90 20 -36 4 -77 13 -91 21 -15 7 -60 20 -100 29 -41 9 -83 20
-94 25 -11 5 -33 11 -50 14 -16 2 -75 20 -130 39 -55 19 -129 44 -165 55 -147
47 -290 101 -318 119 -13 8 -30 12 -39 9 -8 -3 -26 3 -40 14 -14 11 -32 20
-40 20 -8 0 -43 13 -76 29 -34 15 -73 32 -87 36 -13 4 -54 23 -91 41 -37 19
-71 34 -75 34 -12 0 -119 54 -122 62 -2 4 -9 8 -15 8 -12 0 -242 115 -312 156
-22 13 -44 26 -50 28 -5 2 -17 7 -25 10 -8 4 -24 12 -35 19 -11 7 -51 30 -90
52 -38 21 -90 53 -115 70 -25 17 -52 34 -60 38 -8 4 -37 21 -65 37 -27 16 -60
34 -73 40 -12 5 -25 17 -28 25 -4 8 -14 15 -23 15 -10 0 -35 15 -57 33 -21 18
-77 58 -124 89 -47 31 -94 63 -105 72 -11 8 -53 39 -94 68 -40 29 -91 70 -114
91 -22 20 -43 37 -47 37 -4 0 -20 12 -37 27 -16 16 -38 35 -49 43 -10 8 -42
34 -70 58 -27 23 -52 42 -55 42 -7 0 -104 86 -146 127 -17 18 -35 33 -38 33
-4 0 -25 19 -48 43 -64 64 -190 177 -199 177 -4 0 -8 4 -8 9 0 4 -42 51 -92
103 -149 153 -258 270 -258 277 0 4 -12 18 -27 33 -16 14 -46 47 -68 72 -22
26 -52 61 -67 78 -16 17 -28 34 -28 38 0 3 -22 29 -50 56 -27 27 -50 55 -50
62 0 6 -4 12 -8 12 -5 0 -26 26 -48 57 -21 31 -46 64 -54 72 -21 22 -70 88
-70 96 0 3 -15 21 -33 41 -17 19 -41 50 -52 68 -11 18 -49 75 -85 126 -36 50
-74 107 -85 124 -11 18 -30 45 -42 60 -13 16 -23 33 -23 38 0 5 -11 24 -24 41
-13 18 -41 64 -62 102 -56 106 -62 115 -104 184 -22 34 -40 69 -40 76 0 7 -3
15 -7 17 -18 8 -273 511 -273 538 0 10 -7 23 -15 30 -8 6 -17 22 -20 33 -6 20
-88 221 -121 294 -8 17 -14 37 -14 45 0 8 -4 18 -9 24 -5 5 -23 50 -39 99 -17
50 -47 137 -67 195 -20 58 -38 115 -39 127 -2 13 -8 28 -14 35 -12 15 -52 154
-59 208 -3 19 -9 40 -13 45 -9 11 -47 152 -55 205 -2 8 -10 47 -20 85 -16 68
-73 335 -94 445 -6 30 -13 80 -16 110 -3 30 -10 73 -15 95 -5 22 -12 67 -15
100 -9 91 -25 249 -35 350 -22 209 -32 424 -34 755 -1 105 25 600 35 655 5 33
16 119 24 190 19 177 42 350 55 410 6 28 26 129 45 226 33 174 45 223 104 449
38 147 67 249 85 297 7 21 30 92 51 158 20 66 40 129 45 140 4 11 13 36 20 55
7 19 21 55 32 79 11 25 21 52 23 60 2 9 10 32 18 51 9 19 30 73 48 120 18 47
41 97 51 112 10 14 18 31 18 37 0 29 207 458 276 572 19 31 34 59 34 62 0 3
29 56 65 118 36 61 65 113 65 115 0 16 336 519 410 614 13 17 31 42 40 55 28
43 134 180 155 200 11 11 36 40 55 65 19 24 42 52 50 62 8 9 27 32 42 50 15
18 48 56 73 83 25 28 72 80 103 117 71 84 444 455 572 568 52 47 101 91 108
98 8 7 30 25 50 40 20 15 48 37 62 48 14 12 61 51 105 87 44 36 96 80 116 96
20 17 39 31 43 31 4 0 42 29 86 65 44 36 82 65 85 65 3 0 38 24 78 53 40 28
80 57 89 62 9 6 34 22 55 36 61 41 142 92 228 145 100 62 101 62 174 103 34
19 61 37 61 41 0 4 12 11 27 15 15 3 43 19 62 34 20 15 52 33 71 41 19 7 60
27 90 44 61 33 163 84 255 126 33 15 95 44 138 64 92 43 127 58 147 62 8 2 16
8 18 13 2 6 14 11 26 11 12 0 26 4 32 10 5 5 40 20 77 33 37 13 64 27 60 30
-3 4 2 7 13 7 11 0 53 13 94 29 41 16 91 32 110 36 19 4 37 11 40 15 3 4 79
30 170 59 91 29 185 59 209 67 25 8 55 14 69 14 13 0 36 6 50 14 28 15 175 55
302 82 41 9 93 20 115 25 78 18 141 30 200 40 32 5 63 13 68 18 5 5 15 7 23 4
7 -2 64 4 126 16 160 28 278 44 316 42 18 0 31 2 29 6 -5 8 15 10 151 13 40 1
72 7 72 12 0 6 6 8 13 6 11 -5 271 5 422 16 136 10 390 15 367 8 -12 -4 46 -8
130 -8 84 -1 221 -7 303 -13 83 -7 184 -14 225 -17 41 -4 82 -10 91 -15 9 -4
19 -6 22 -3 4 5 73 -5 160 -22 15 -3 27 -2 27 3 0 13 -191 40 -511 73 -249 25
-828 37 -1129 23z"/>
<path d="M15361 17788 c-29 -45 -31 -53 -18 -62 123 -85 143 -105 118 -120 -5
-3 -53 -68 -107 -143 -54 -76 -131 -182 -171 -237 -40 -54 -73 -101 -73 -105
0 -4 27 -26 61 -50 l60 -42 18 23 c10 13 76 102 146 198 193 264 205 280 212
280 4 0 37 -23 75 -50 38 -28 73 -48 78 -45 21 13 72 97 64 105 -25 24 -410
300 -419 300 -5 0 -25 -24 -44 -52z"/>
<path d="M4692 17728 c-39 -28 -39 -29 -48 -148 l-7 -94 49 36 c44 33 50 41
54 82 6 52 5 51 61 42 36 -6 46 -3 82 26 23 17 44 33 46 35 11 8 -13 15 -95
28 -112 18 -104 19 -142 -7z"/>
<path d="M4811 17559 c-94 -71 -171 -134 -171 -140 0 -5 39 -60 88 -122 94
-120 93 -120 255 -331 59 -78 112 -141 117 -141 13 0 339 248 340 258 0 13
-62 97 -72 97 -5 0 -55 -36 -113 -80 -58 -44 -107 -80 -109 -80 -7 0 -116 141
-116 150 0 6 81 71 169 136 13 10 10 19 -24 62 -32 43 -41 49 -55 39 -9 -7
-50 -38 -92 -69 -42 -32 -78 -58 -81 -58 -12 0 -107 134 -100 140 5 4 52 40
106 80 54 41 100 77 103 82 3 5 -12 31 -34 58 l-40 50 -171 -131z"/>
<path d="M15692 17169 c-128 -154 -235 -285 -238 -292 -4 -12 89 -97 107 -97
11 0 29 21 109 119 36 44 67 80 70 80 3 0 17 -10 32 -23 l26 -24 -45 -140 -45
-141 36 -32 c93 -81 95 -81 114 -19 6 19 27 88 47 153 l36 117 45 0 c58 0 109
27 163 85 52 57 71 100 71 162 -1 91 -37 140 -206 276 -39 31 -75 57 -80 57
-5 0 -114 -126 -242 -281z m332 38 c28 -27 46 -52 46 -66 0 -54 -70 -131 -119
-131 -27 0 -57 16 -98 53 l-22 20 32 41 c53 69 102 126 108 126 3 0 27 -19 53
-43z"/>
<path d="M4459 17284 c-30 -26 -54 -53 -54 -60 0 -7 42 -60 93 -117 50 -58 92
-110 92 -115 0 -5 -9 -16 -19 -23 -11 -8 -47 -38 -80 -67 l-60 -53 -98 111
c-54 60 -102 110 -106 110 -5 0 -33 -21 -62 -46 -48 -42 -53 -49 -41 -65 7
-10 111 -130 232 -265 120 -136 225 -255 232 -265 20 -28 34 -24 91 29 51 46
52 47 34 67 -10 11 -45 52 -78 90 -33 39 -72 84 -88 100 l-27 30 77 72 c43 40
83 72 88 72 6 0 54 -52 109 -115 54 -62 102 -114 107 -114 10 0 103 79 107 92
4 9 -46 71 -143 178 -76 85 -310 352 -332 379 l-19 24 -55 -49z"/>
<path d="M16570 17115 c-25 -8 -65 -19 -89 -25 l-44 -11 44 -45 44 -45 95 7
c143 10 143 10 70 77 -33 31 -64 57 -68 56 -4 -1 -27 -7 -52 -14z"/>
<path d="M16295 16927 c-60 -66 -141 -154 -180 -195 -38 -42 -77 -83 -85 -92
-8 -9 -43 -46 -78 -84 l-63 -67 52 -47 c29 -26 58 -47 64 -47 6 0 112 108 235
240 122 132 237 255 254 273 l31 33 -55 54 c-30 30 -57 54 -60 54 -3 0 -54
-55 -115 -122z"/>
<path d="M5340 16943 c-33 -12 -70 -57 -70 -85 0 -85 116 -92 159 -10 28 53
-31 116 -89 95z"/>
<path d="M3910 16763 c-59 -26 -127 -91 -156 -149 -22 -45 -26 -64 -22 -116 6
-97 36 -148 157 -269 130 -128 200 -169 294 -169 75 0 134 27 195 87 53 53
102 153 102 208 0 38 -6 47 -110 150 l-110 110 -90 -90 c-49 -49 -90 -94 -90
-100 0 -14 62 -75 76 -75 6 0 23 14 39 30 16 17 34 30 40 30 6 0 30 -20 54
-44 49 -50 49 -65 -1 -121 -36 -42 -81 -53 -132 -31 -50 21 -240 208 -267 263
-26 53 -20 82 23 123 37 36 83 40 121 10 14 -11 29 -20 34 -20 5 0 31 22 58
50 48 48 48 50 30 70 -10 11 -42 31 -71 45 -60 28 -121 31 -174 8z"/>
<path d="M16723 16648 l-42 -43 59 -65 c33 -36 60 -68 60 -72 0 -4 -8 -13 -19
-20 -16 -11 -150 -136 -368 -342 -35 -33 -63 -63 -63 -67 0 -5 22 -32 49 -61
l49 -52 162 149 c89 83 194 179 233 215 l70 65 63 -69 63 -69 45 39 c24 21 45
44 45 50 1 13 -336 378 -352 382 -7 1 -31 -17 -54 -40z"/>
<path d="M3477 16322 c-26 -31 -47 -60 -47 -64 0 -3 81 -73 179 -155 99 -81
180 -151 180 -154 1 -3 -113 27 -251 67 l-253 74 -52 -58 c-29 -31 -52 -60
-50 -64 1 -4 72 -65 157 -136 85 -71 215 -180 289 -242 l134 -112 48 53 c27
30 48 57 49 61 0 7 -220 199 -317 277 -24 19 -42 36 -40 38 2 1 23 -3 48 -11
24 -8 138 -40 252 -72 l209 -58 16 21 c10 11 32 39 49 61 l33 39 -73 60 c-39
33 -106 89 -147 124 -41 34 -133 112 -205 173 -71 60 -137 116 -146 123 -13
11 -22 5 -62 -45z"/>
<path d="M17035 16080 c-239 -194 -308 -263 -324 -322 -22 -78 4 -159 76 -239
77 -86 184 -108 273 -58 37 20 409 308 458 354 12 10 6 23 -34 74 -26 33 -49
61 -51 61 -2 0 -85 -66 -184 -147 -302 -247 -309 -250 -364 -195 -38 38 -48
68 -32 100 7 15 110 106 229 202 119 96 220 178 224 182 6 7 -84 129 -95 127
-3 0 -82 -63 -176 -139z"/>
<path d="M17570 15671 c-32 -26 -87 -65 -435 -309 -66 -46 -124 -87 -128 -92
-6 -6 197 -311 239 -359 5 -6 104 62 104 71 0 5 -32 54 -70 108 -39 55 -73
105 -75 113 -6 15 139 122 154 113 4 -3 37 -46 71 -95 l63 -89 48 31 c27 18
49 37 49 42 0 6 -27 48 -60 95 -33 47 -60 90 -60 96 0 11 118 94 133 94 3 0
38 -46 78 -102 40 -57 75 -107 79 -111 7 -8 110 58 110 70 0 13 -245 353 -254
353 -6 -1 -27 -13 -46 -29z"/>
<path d="M17697 15694 c-8 -9 48 -90 68 -98 9 -3 32 -6 51 -6 37 0 40 -6 24
-60 -9 -31 -6 -40 26 -88 19 -30 37 -52 39 -50 1 1 12 50 24 107 l21 104 -25
33 c-25 33 -30 35 -132 49 -21 3 -49 8 -63 11 -14 2 -29 2 -33 -2z"/>
<path d="M2869 15522 c-82 -53 -142 -155 -142 -242 1 -71 23 -120 81 -182 49
-53 188 -152 273 -194 151 -76 302 -17 384 150 23 48 29 73 29 130 l1 70 -125
87 c-69 49 -129 88 -135 88 -10 0 -129 -171 -141 -202 -4 -10 10 -25 40 -46
l46 -32 31 45 32 44 57 -39 c56 -38 58 -40 50 -73 -19 -87 -85 -124 -171 -94
-51 17 -229 140 -272 187 -53 58 -48 118 13 169 15 12 70 11 116 -3 16 -5 27
4 57 49 20 31 37 60 37 65 0 17 -109 51 -163 51 -41 0 -63 -6 -98 -28z"/>
<path d="M6180 15371 c0 -6 9 -25 19 -43 58 -98 68 -293 22 -408 -44 -107
-120 -194 -235 -265 -15 -9 -12 -26 23 -175 42 -175 115 -450 157 -587 24 -81
25 -83 70 -103 26 -11 48 -20 49 -20 1 0 -13 53 -32 118 -18 64 -56 207 -84
317 -82 332 -79 319 -65 327 187 104 294 310 266 510 -11 79 -48 175 -86 227
-34 45 -104 114 -104 102z"/>
<path d="M5660 15337 c-19 -6 -58 -34 -86 -62 -40 -40 -54 -62 -64 -104 -25
-103 9 -209 85 -267 41 -31 50 -28 35 10 -24 65 -2 165 52 230 58 70 183 106
262 76 14 -5 28 -5 31 -1 8 14 -76 92 -120 112 -45 21 -139 24 -195 6z"/>
<path d="M16975 15070 c-24 -26 -15 -94 16 -121 28 -24 81 -25 102 -1 26 28
21 82 -8 115 -32 33 -83 37 -110 7z"/>
<path d="M2537 15048 c-61 -101 -68 -122 -39 -133 28 -10 393 -217 390 -221
-2 -2 -112 8 -243 21 -132 14 -250 25 -262 25 -16 0 -31 -15 -58 -61 -19 -33
-35 -64 -35 -69 0 -4 78 -52 173 -106 94 -54 241 -137 325 -186 85 -48 157
-86 162 -83 12 8 71 118 68 127 -2 4 -59 40 -128 79 -69 39 -160 91 -202 116
-43 24 -78 45 -78 46 0 2 102 -7 228 -20 324 -31 294 -35 337 38 19 33 35 63
35 67 0 4 -17 16 -38 28 -20 11 -158 90 -307 176 -350 201 -312 183 -328 156z"/>
<path d="M17760 14835 c-168 -96 -313 -179 -323 -185 -16 -10 -16 -13 7 -58
49 -95 38 -94 167 -22 63 35 152 85 199 112 46 26 88 48 93 48 4 0 -3 -15 -16
-32 -77 -106 -142 -194 -205 -280 -40 -53 -72 -102 -72 -108 0 -16 63 -130 72
-130 4 0 101 52 215 117 114 64 233 130 263 146 55 30 171 97 180 104 7 6 -63
133 -73 133 -5 0 -70 -35 -145 -77 -231 -130 -272 -152 -272 -147 0 2 26 39
58 81 96 127 236 317 245 330 10 16 -59 143 -76 142 -7 0 -149 -78 -317 -174z"/>
<path d="M5480 14669 c0 -4 25 -30 55 -57 82 -75 229 -143 212 -98 -3 8 -9 30
-12 49 -7 33 -8 34 -73 46 -37 7 -93 24 -124 40 -32 15 -58 24 -58 20z"/>
<path d="M8496 14431 c-9 -13 -6 -516 3 -528 3 -5 20 -17 36 -27 17 -10 41
-29 55 -42 l25 -23 -3 256 -3 256 128 -6 c366 -18 691 -139 983 -364 l35 -27
-40 43 c-22 23 -74 69 -115 101 -209 165 -461 282 -725 335 -143 29 -368 45
-379 26z"/>
<path d="M2025 14381 c-84 -26 -91 -31 -113 -69 l-23 -42 38 -95 c21 -52 42
-94 46 -92 5 1 18 24 30 51 20 46 20 50 4 94 -10 25 -16 46 -15 47 2 1 22 7
46 14 36 10 46 19 67 61 14 27 25 52 25 55 0 8 -8 6 -105 -24z"/>
<path d="M8128 14385 c-243 -63 -518 -208 -685 -360 l-62 -56 16 -34 c17 -35
17 -35 86 -35 l69 0 97 73 c156 118 340 213 519 268 l72 23 0 73 c0 52 -4 73
-12 72 -7 0 -52 -11 -100 -24z"/>
<path d="M18395 14385 c-16 -7 -68 -31 -115 -53 -47 -22 -184 -86 -305 -142
-121 -56 -224 -106 -229 -111 -9 -8 39 -125 55 -135 4 -2 71 26 150 62 79 36
145 61 147 57 2 -4 22 -48 46 -98 24 -49 41 -93 37 -97 -3 -3 -68 -34 -143
-69 -76 -34 -138 -66 -138 -71 0 -6 13 -38 29 -73 l30 -64 163 75 c90 42 215
100 278 129 226 103 250 115 250 119 0 13 -62 136 -69 136 -5 0 -66 -27 -136
-60 -70 -33 -130 -60 -134 -60 -11 0 -94 187 -88 197 3 5 65 36 136 68 72 32
131 63 131 69 -1 6 -15 39 -33 73 l-32 62 -30 -14z"/>
<path d="M2238 14366 c-52 -19 -82 -40 -114 -80 -96 -120 -82 -289 31 -382 44
-36 228 -131 298 -153 67 -22 166 -18 221 9 89 45 150 149 149 255 -1 117 -66
193 -240 279 -166 83 -260 102 -345 72z m144 -157 c73 -24 211 -92 254 -124
45 -34 60 -76 45 -126 -17 -56 -60 -82 -121 -73 -87 12 -305 124 -344 177 -48
65 1 164 82 166 12 1 50 -8 84 -20z"/>
<path d="M10104 13907 c122 -162 238 -381 301 -572 20 -60 44 -166 59 -265 30
-192 50 -241 133 -321 31 -30 53 -49 51 -44 -2 6 -12 27 -22 49 -9 21 -29 111
-42 200 -30 192 -71 320 -158 496 -101 202 -184 327 -326 488 -68 78 -66 62 4
-31z"/>
<path d="M7008 13874 c-33 -17 -61 -68 -60 -105 1 -41 29 -87 62 -104 44 -23
57 -19 64 20 7 37 63 85 98 85 22 0 22 2 4 45 -27 64 -108 92 -168 59z"/>
<path d="M1943 13760 c-115 -59 -175 -244 -116 -356 48 -90 196 -175 398 -227
74 -19 90 -20 142 -9 81 17 131 55 169 129 54 103 54 196 2 273 -25 36 -115
103 -131 97 -10 -3 -55 -111 -56 -134 -1 -6 7 -14 17 -17 9 -3 30 -17 46 -29
24 -19 29 -31 28 -60 -2 -45 -25 -93 -54 -108 -32 -17 -92 -6 -225 44 -192 72
-230 104 -220 180 10 72 56 99 138 83 l35 -8 29 71 c15 39 25 74 21 78 -3 4
-46 9 -94 11 -74 3 -93 0 -129 -18z"/>
<path d="M18796 13692 c-2 -4 3 -30 12 -57 15 -42 23 -51 64 -68 l46 -20 -21
-43 c-20 -43 -20 -44 -2 -99 11 -30 22 -55 25 -55 9 0 90 172 90 191 0 9 -6
32 -14 50 -12 30 -25 38 -93 63 -43 16 -83 33 -90 38 -6 5 -14 5 -17 0z"/>
<path d="M7394 13599 c-63 -126 -190 -199 -345 -199 l-67 0 -36 -109 c-144
-434 -114 -891 86 -1296 57 -116 139 -235 161 -235 10 0 17 3 15 8 -2 4 -31
63 -65 132 -195 395 -219 887 -65 1300 l28 75 91 6 c72 4 103 12 149 34 72 35
142 104 172 169 l23 48 107 -6 c147 -9 382 -34 462 -50 l67 -12 -29 55 -30 56
-136 22 c-134 22 -435 53 -519 53 -41 0 -44 -2 -69 -51z"/>
<path d="M6645 13579 c-22 -5 -86 -21 -142 -35 -99 -26 -101 -27 -107 -59 -4
-18 -17 -54 -31 -80 l-24 -48 66 -166 c36 -91 93 -228 126 -305 64 -143 73
-151 76 -58 1 26 -72 230 -139 389 -7 17 -3 32 15 65 13 24 26 59 30 79 l7 36
108 28 108 27 16 43 c14 35 14 47 5 69 -13 29 -39 32 -114 15z"/>
<path d="M18710 13573 c-25 -2 -195 -12 -378 -23 -184 -10 -336 -21 -339 -24
-3 -3 6 -36 20 -73 l25 -68 82 0 83 0 33 -90 c19 -49 34 -92 34 -95 0 -3 -29
-25 -64 -50 l-64 -44 27 -74 c14 -41 30 -74 34 -74 5 0 65 45 135 98 141 110
485 376 491 380 2 2 -7 34 -20 71 -26 72 -25 72 -99 66z m-140 -163 c-14 -11
-55 -41 -93 -66 -37 -26 -70 -51 -73 -55 -3 -5 -9 -9 -13 -9 -9 0 -56 118 -50
124 5 4 170 23 219 24 l35 2 -25 -20z"/>
<path d="M8566 13431 l-27 -28 16 -104 c70 -475 223 -965 417 -1338 102 -196
289 -480 316 -481 6 0 12 2 12 4 0 3 -26 47 -58 98 -282 448 -462 949 -563
1567 l-21 135 30 27 31 27 108 -35 c284 -92 523 -189 820 -334 186 -90 459
-239 543 -296 42 -28 50 -29 50 -4 0 12 -35 40 -112 88 -480 298 -1025 550
-1485 686 l-51 15 -26 -27z"/>
<path d="M5860 13298 c-366 -205 -569 -353 -822 -597 l-110 -106 16 -54 c51
-172 -27 -356 -183 -434 -39 -20 -95 -39 -124 -42 -59 -8 -153 7 -200 30 -17
8 -33 13 -36 10 -10 -11 106 -109 159 -134 47 -22 68 -26 150 -26 87 0 101 3
161 32 126 62 200 176 207 315 3 54 -1 92 -12 124 -9 26 -16 49 -16 51 0 8
209 207 285 272 194 164 408 311 616 420 l91 49 49 -31 c27 -16 51 -28 54 -25
3 2 -2 26 -11 51 -13 37 -22 48 -42 53 -67 13 -102 26 -136 49 -20 14 -38 25
-39 24 -1 0 -27 -14 -57 -31z"/>
<path d="M18890 13094 c-25 -8 -184 -55 -354 -104 -170 -49 -310 -91 -313 -94
-2 -2 5 -36 17 -76 17 -57 25 -71 38 -67 9 2 98 28 197 55 99 28 195 56 213
61 17 5 32 8 32 6 0 -2 -90 -80 -199 -173 l-199 -171 21 -70 c11 -41 26 -71
33 -71 14 0 716 199 722 205 7 7 -41 145 -51 145 -5 0 -74 -19 -151 -41 -78
-23 -179 -52 -224 -65 l-84 -23 44 38 c23 21 75 64 113 97 228 191 245 207
244 228 -1 33 -33 129 -44 132 -6 1 -30 -5 -55 -12z"/>
<path d="M13450 12867 l0 -145 -27 -5 c-16 -3 -128 -6 -250 -6 -123 0 -227 -1
-233 -1 -6 0 -10 -38 -10 -94 l0 -95 53 3 c28 2 55 4 60 5 4 0 7 17 7 36 l0
35 255 0 255 0 -2 203 -3 202 -52 3 -53 3 0 -144z"/>
<path d="M14047 13004 c-4 -4 -7 -319 -7 -701 l0 -693 -180 0 -181 0 3 -57 3
-58 238 0 237 0 0 755 0 755 -53 3 c-29 2 -56 0 -60 -4z"/>
<path d="M16477 13003 c-2 -5 8 -51 24 -103 15 -52 42 -144 59 -205 17 -60 42
-146 54 -190 30 -101 50 -179 49 -185 -1 -3 4 -14 9 -24 6 -11 24 -67 40 -125
16 -58 39 -135 49 -171 11 -36 28 -96 39 -135 23 -82 57 -199 65 -226 6 -18
-2 -19 -205 -19 l-211 0 7 -37 c4 -21 10 -49 14 -63 l6 -25 250 -3 c137 -1
254 0 260 2 9 3 4 31 -16 98 -15 51 -47 158 -70 238 -23 80 -57 197 -76 260
-107 368 -264 910 -264 915 0 8 -78 6 -83 -2z"/>
<path d="M15324 12885 c47 -116 50 -129 50 -265 0 -125 -2 -140 -28 -205 -33
-81 -63 -127 -114 -172 l-36 -31 54 -119 c29 -65 64 -143 78 -173 14 -30 42
-93 63 -139 22 -46 39 -90 39 -98 0 -26 19 -3 29 35 10 34 6 48 -65 204 l-76
168 46 41 c124 109 171 371 104 574 -23 71 -80 153 -128 184 -23 15 -24 15
-16 -4z"/>
<path d="M2140 12810 c-80 -4 -242 -11 -361 -15 l-217 -7 -10 -37 c-6 -20 -14
-52 -17 -72 l-6 -35 123 -78 c68 -42 184 -116 258 -163 74 -47 170 -107 212
-134 l78 -48 15 54 c29 100 28 105 -42 144 -37 20 -63 41 -63 50 1 9 11 54 23
101 l23 85 82 3 81 3 15 52 c8 29 18 64 21 80 8 31 34 29 -215 17z m-120 -158
c0 -10 -31 -116 -35 -120 -2 -2 -54 26 -116 62 l-113 66 132 0 c72 0 132 -4
132 -8z"/>
<path d="M14680 12605 l0 -145 60 0 60 0 0 85 0 85 40 0 c36 0 40 3 40 24 0
70 -38 96 -141 96 l-59 0 0 -145z"/>
<path d="M16137 12693 c-3 -10 -13 -61 -23 -113 -9 -52 -29 -151 -44 -220 -15
-69 -26 -128 -24 -131 2 -3 35 -7 73 -8 l69 -2 14 63 c11 52 11 73 1 118 -7
30 -22 111 -33 180 -12 68 -23 126 -25 128 -2 2 -5 -5 -8 -15z"/>
<path d="M4509 12522 c-62 -55 -47 -167 26 -198 47 -19 53 -18 60 16 8 35 67
90 97 90 18 0 20 4 14 33 -16 83 -131 118 -197 59z"/>
<path d="M10476 12498 c-3 -7 -7 -35 -10 -63 -11 -92 -66 -288 -118 -417 -101
-253 -220 -430 -437 -648 l-154 -154 2 -86 c1 -52 -3 -98 -10 -114 -12 -25
-11 -29 17 -51 16 -12 43 -35 59 -49 17 -14 33 -26 36 -26 14 0 20 39 18 124
l-2 89 92 81 c175 155 343 378 446 591 85 175 139 351 179 578 l7 37 77 -58
c108 -81 302 -205 309 -198 10 10 -57 75 -107 104 -89 52 -247 156 -323 214
-50 38 -79 54 -81 46z"/>
<path d="M13358 12268 l-3 -133 -212 -3 -213 -2 -2 -258 -3 -257 -172 -3 c-95
-1 -173 -6 -174 -10 -2 -10 -2 -63 0 -90 l1 -22 233 2 232 3 3 257 2 258 213
2 212 3 3 193 2 192 -59 0 -60 0 -3 -132z"/>
<path d="M11217 12235 c24 -53 28 -72 28 -160 0 -119 -21 -173 -103 -271 -29
-34 -52 -69 -52 -78 0 -22 24 -68 71 -138 49 -73 64 -131 51 -194 -10 -44 -8
-51 20 -101 43 -76 49 -158 18 -252 -27 -83 -23 -110 36 -206 20 -33 52 -91
73 -130 34 -67 36 -74 36 -170 0 -88 -3 -107 -27 -158 -37 -79 -77 -127 -151
-183 -165 -124 -396 -194 -775 -235 -213 -23 -269 -36 -367 -87 -87 -45 -211
-166 -280 -272 -60 -92 -129 -240 -180 -383 -46 -130 -71 -157 -145 -157 -26
0 -176 18 -332 40 -600 85 -1186 192 -1428 259 l-104 30 -53 -50 c-77 -73
-147 -102 -258 -107 -79 -4 -98 -1 -153 21 -34 14 -62 22 -62 18 0 -19 105
-104 158 -129 50 -24 69 -27 162 -27 93 0 111 3 163 27 31 15 81 49 110 77
l53 50 50 -15 c138 -42 430 -104 799 -168 317 -56 945 -146 1014 -146 56 0
100 29 119 77 6 16 27 73 47 128 97 265 232 468 378 567 121 82 199 104 477
133 431 45 715 161 841 345 55 79 72 144 67 243 -5 88 -16 115 -112 282 -58
101 -63 125 -37 203 35 104 21 221 -35 283 -12 13 -12 25 -3 73 15 71 4 112
-52 197 -39 57 -69 118 -69 137 0 5 23 38 52 73 84 105 103 155 103 275 0 94
-2 104 -33 166 -19 37 -58 89 -88 119 l-55 54 28 -60z"/>
<path d="M1570 12271 c-123 -38 -190 -131 -192 -266 -2 -152 95 -240 318 -285
267 -54 398 -3 449 174 39 132 -9 241 -134 309 -90 50 -364 91 -441 68z m242
-172 c116 -23 145 -33 177 -62 34 -32 43 -63 31 -108 -22 -82 -92 -95 -285
-55 -124 25 -176 47 -205 84 -37 47 -17 129 37 150 59 23 88 22 245 -9z"/>
<path d="M19105 12238 c-27 -6 -51 -12 -53 -13 -2 -2 4 -42 13 -90 9 -48 15
-88 13 -90 -2 -1 -129 -26 -283 -54 -154 -29 -293 -54 -308 -57 -20 -4 -26
-10 -23 -22 3 -10 8 -38 11 -63 4 -25 10 -52 15 -59 6 -10 69 -2 311 42 167
30 305 54 307 53 1 -1 9 -38 17 -81 9 -43 17 -84 19 -90 7 -17 126 5 126 23 0
15 -60 358 -81 461 -6 29 -16 51 -22 51 -7 -1 -34 -6 -62 -11z"/>
<path d="M14678 11869 l-3 -251 -156 1 c-85 1 -163 -1 -172 -5 -13 -5 -17 -19
-17 -65 l0 -59 235 0 235 0 0 247 c0 225 -2 254 -21 315 l-22 68 -38 0 -39 0
-2 -251z"/>
<path d="M15965 11838 c-3 -7 -11 -51 -19 -98 -23 -132 -3 -120 -193 -120
l-165 0 -11 -30 c-14 -38 -20 -38 -34 0 l-11 31 -256 -1 c-141 -1 -258 -5
-261 -9 -2 -5 4 -33 14 -62 l18 -54 479 -3 c263 -1 488 0 500 2 17 5 23 21 39
103 10 54 20 104 22 111 4 9 41 12 137 12 72 0 126 4 120 8 -7 4 -16 32 -20
62 l-9 55 -173 3 c-133 2 -174 0 -177 -10z"/>
<path d="M1316 11628 c-3 -7 -7 -43 -10 -79 l-6 -67 42 -6 c24 -3 92 -11 152
-17 l108 -12 -6 -76 c-4 -42 -9 -91 -12 -108 -7 -39 -9 -39 -169 -18 -157 21
-142 27 -150 -60 -4 -42 -6 -77 -4 -79 5 -5 751 -88 754 -84 2 2 6 37 10 78
l7 75 -157 17 c-87 9 -159 19 -161 20 -1 2 2 52 9 111 7 76 14 107 24 107 7 0
79 -7 159 -16 80 -9 147 -14 150 -12 2 2 6 36 10 75 l7 72 -34 5 c-19 3 -92
12 -164 20 -289 33 -492 56 -523 62 -22 3 -34 1 -36 -8z"/>
<path d="M18525 11563 c11 -102 10 -100 62 -107 119 -17 110 -11 117 -79 4
-34 9 -81 12 -103 l6 -41 -75 -28 -76 -27 6 -52 c3 -28 8 -65 12 -83 l6 -31
355 159 c195 87 359 160 363 162 5 1 5 35 2 74 -7 69 -8 71 -39 78 -101 21
-724 135 -739 135 -16 0 -18 -6 -12 -57z m468 -164 c48 -7 87 -15 87 -18 0
-11 -223 -92 -230 -84 -4 4 -10 34 -13 67 l-6 58 37 -5 c20 -3 76 -11 125 -18z"/>
<path d="M7495 11579 c4 -13 10 -58 12 -99 l5 -75 53 -37 c30 -21 57 -38 61
-38 15 0 -5 121 -27 157 -27 46 -67 91 -93 105 -17 9 -18 8 -11 -13z"/>
<path d="M6395 11424 c5 -16 9 -69 9 -117 l1 -89 54 -50 c62 -57 69 -54 70 33
2 92 -41 181 -111 230 l-31 23 8 -30z"/>
<path d="M10869 11353 c-114 -153 -284 -345 -442 -501 l-146 -143 11 -53 c11
-50 15 -55 55 -75 51 -25 67 -26 60 -7 -4 10 19 38 60 78 158 149 315 318 432
462 l72 89 -25 24 c-40 37 -44 88 -13 145 27 49 34 78 18 78 -5 0 -41 -44 -82
-97z"/>
<path d="M18393 11375 c-27 -19 -37 -59 -23 -101 29 -88 140 -65 140 28 0 69
-65 110 -117 73z"/>
<path d="M9372 11239 c-73 -15 -117 -95 -89 -161 15 -37 43 -60 85 -73 19 -5
23 -2 28 24 7 35 65 91 93 91 26 0 30 9 20 40 -20 57 -80 92 -137 79z"/>
<path d="M7123 11189 c54 -72 134 -109 232 -109 36 0 65 4 65 8 0 4 -24 32
-54 61 l-54 54 -84 2 c-45 1 -94 5 -107 10 l-24 8 26 -34z"/>
<path d="M6031 11029 c55 -67 126 -99 222 -99 42 0 77 4 77 8 0 4 -24 32 -54
61 l-54 53 -89 3 c-48 1 -99 5 -113 10 -24 8 -23 6 11 -36z"/>
<path d="M1246 10978 c-3 -13 -6 -55 -6 -94 l0 -71 155 -95 c85 -52 153 -97
151 -99 -3 -2 -71 -1 -153 2 -81 4 -151 5 -155 2 -7 -4 -12 -153 -5 -153 27
-3 752 -28 753 -27 1 1 4 36 6 77 l3 75 -105 3 c-102 3 -106 4 -144 35 l-39
33 145 63 c145 62 146 63 152 99 9 55 7 142 -3 142 -4 0 -99 -43 -210 -95
-112 -52 -207 -95 -212 -95 -5 0 -33 17 -62 37 -28 20 -74 52 -102 72 -27 19
-73 52 -101 73 -28 21 -53 38 -56 38 -3 0 -8 -10 -12 -22z"/>
<path d="M18870 10990 c-127 -15 -198 -56 -245 -141 -24 -45 -29 -65 -29 -129
0 -122 47 -199 149 -246 68 -31 138 -37 285 -25 145 12 202 28 259 78 64 54
85 103 85 198 1 71 -2 86 -30 135 -36 64 -105 112 -186 129 -54 12 -188 12
-288 1z m304 -164 c45 -19 66 -52 66 -102 0 -85 -60 -112 -268 -121 -158 -7
-198 4 -232 59 -49 77 3 152 120 171 66 11 282 6 314 -7z"/>
<path d="M7685 10834 c171 -161 442 -366 644 -486 261 -156 298 -171 371 -148
24 7 24 8 5 15 -132 52 -366 171 -515 263 -165 102 -244 158 -435 310 -88 70
-111 85 -70 46z"/>
<path d="M9045 10869 c-66 -21 -234 -49 -356 -59 -151 -13 -372 0 -514 29 -49
11 -91 18 -93 16 -4 -3 142 -107 175 -124 48 -25 227 -44 408 -45 188 0 264 9
453 50 l113 25 45 -40 c51 -44 126 -77 201 -87 53 -7 150 9 194 32 23 12 29
11 39 -1 13 -16 30 -20 30 -7 0 4 -38 38 -84 75 l-84 67 -49 -22 c-38 -17 -66
-22 -133 -21 -99 0 -171 27 -237 87 -42 37 -57 41 -108 25z"/>
<path d="M17050 10815 c0 -30 -29 -71 -63 -90 -33 -17 -61 -18 -778 -6 -409 7
-751 14 -760 17 -9 2 -24 -5 -34 -16 -14 -15 -15 -19 -4 -15 11 4 25 -14 51
-67 53 -107 59 -132 65 -253 4 -84 2 -126 -11 -175 -73 -286 -322 -481 -615
-482 -92 0 -138 9 -241 48 -85 31 -117 53 -99 66 10 7 8 8 -7 3 -17 -4 -35 7
-79 50 -32 31 -60 53 -62 51 -3 -3 -17 -62 -33 -133 -15 -70 -48 -220 -74
-333 -61 -265 -74 -320 -92 -405 -8 -38 -32 -142 -54 -230 -21 -88 -50 -214
-64 -280 -14 -66 -37 -169 -51 -230 -14 -60 -37 -162 -51 -225 -14 -63 -41
-180 -60 -258 -19 -79 -34 -154 -34 -165 0 -18 -2 -19 -11 -7 -8 12 -9 10 -4
-7 3 -12 -6 -70 -20 -130 -49 -207 -54 -229 -75 -323 -11 -52 -25 -113 -30
-135 -5 -22 -21 -87 -34 -145 -24 -103 -54 -238 -63 -292 -3 -15 -9 -25 -14
-22 -5 3 -6 -2 -3 -11 4 -9 0 -30 -9 -48 -9 -18 -32 -67 -51 -110 -24 -52 -40
-76 -47 -71 -8 4 -9 3 -5 -5 9 -13 -19 -53 -102 -149 -81 -94 -251 -218 -282
-206 -8 3 -11 2 -7 -2 12 -12 -30 -35 -120 -65 -216 -74 -423 -78 -624 -12
-46 15 -91 28 -100 29 -25 2 -40 14 -33 26 4 6 2 8 -3 5 -13 -8 -74 24 -188
100 -49 33 -144 92 -210 132 -66 40 -158 97 -205 127 -47 29 -116 72 -155 95
-38 23 -164 101 -280 172 -115 72 -304 189 -420 260 -115 71 -232 144 -260
162 -27 17 -223 139 -435 270 -212 131 -477 296 -590 366 -113 70 -206 127
-207 125 -1 -1 8 -29 22 -61 122 -303 136 -661 39 -983 -129 -428 -452 -782
-870 -952 -350 -143 -762 -146 -1109 -8 -143 56 -306 150 -377 216 -15 14 -30
23 -33 20 -8 -8 149 -144 226 -197 157 -108 347 -189 540 -233 91 -20 130 -23
314 -23 164 0 228 4 290 18 469 103 842 392 1054 816 149 295 190 675 110
1006 -22 92 -67 223 -83 244 -9 12 -8 13 5 9 14 -5 406 -246 799 -491 80 -49
190 -118 245 -152 55 -34 153 -96 218 -136 64 -41 150 -94 190 -118 39 -24
153 -94 252 -156 99 -62 302 -187 450 -280 149 -92 350 -218 447 -279 394
-246 359 -229 552 -278 122 -32 326 -29 457 5 230 60 429 191 562 370 103 139
153 253 197 452 17 77 53 237 80 355 27 118 72 316 100 440 28 124 57 252 65
285 8 33 26 111 40 173 96 428 435 1917 440 1930 3 9 19 0 47 -27 248 -244
640 -240 889 8 119 120 175 244 186 411 7 111 -14 211 -67 315 -22 44 -40 84
-40 88 0 5 46 6 103 3 87 -5 1148 -21 1364 -21 83 0 116 18 146 78 24 47 10
104 -34 141 -34 29 -79 35 -79 11z"/>
<path d="M6511 10768 c88 -86 243 -216 379 -320 636 -484 1278 -690 1932 -622
l57 6 -32 40 c-76 94 -64 88 -137 76 -93 -15 -418 -14 -530 1 -208 28 -423 84
-610 158 -297 118 -609 304 -880 524 -52 42 -126 103 -165 134 l-70 57 56 -54z"/>
<path d="M14774 10721 c-94 -32 -173 -103 -222 -201 -24 -50 -27 -65 -27 -165
0 -101 2 -115 29 -170 26 -52 121 -163 132 -153 2 3 -5 28 -16 57 -75 196 8
405 196 493 61 28 74 31 161 29 72 -1 107 -7 144 -23 27 -11 52 -19 54 -16 7
7 -57 71 -105 105 -84 60 -241 80 -346 44z"/>
<path d="M9115 10401 c-86 -39 -135 -116 -135 -211 0 -70 16 -108 68 -162 51
-53 59 -50 54 22 -6 81 16 138 75 189 57 51 100 65 174 58 34 -3 59 -1 59 4 0
5 -19 29 -42 52 -67 66 -170 86 -253 48z"/>
<path d="M9763 10327 c-62 -37 -83 -56 -83 -71 0 -41 14 -48 108 -54 88 -5 90
-4 136 28 l47 32 52 -23 c70 -30 163 -30 233 0 l52 22 51 -25 c33 -17 66 -26
98 -26 73 0 83 14 26 35 -26 10 -105 45 -175 78 l-127 60 -53 -23 c-67 -29
-160 -29 -225 0 -25 11 -48 19 -52 19 -3 -1 -43 -24 -88 -52z"/>
<path d="M9600 9919 c-103 -160 -318 -242 -505 -194 -33 9 -78 24 -99 35 -22
11 -42 17 -45 14 -11 -11 103 -103 164 -132 33 -17 84 -36 114 -42 65 -15 188
-8 251 15 40 14 51 25 99 105 30 48 80 119 113 156 32 37 58 71 58 75 0 4 -27
9 -60 11 l-60 3 -30 -46z"/>
<path d="M7224 9750 c-11 -4 -34 -24 -52 -44 -56 -64 -40 -158 34 -207 40 -26
54 -24 54 9 0 15 9 42 20 60 24 39 75 72 113 72 32 0 33 5 7 48 -37 60 -114
87 -176 62z"/>
<path d="M7766 8440 c-226 -36 -411 -120 -601 -272 -229 -184 -356 -378 -433
-662 -25 -94 -27 -114 -27 -301 0 -177 3 -210 24 -290 56 -215 164 -412 310
-565 59 -62 57 -56 -10 45 -203 302 -263 685 -163 1034 48 164 150 348 271
488 15 18 84 77 153 133 228 183 442 265 725 277 288 12 543 -68 804 -254 21
-15 6 4 -34 44 -147 144 -344 249 -575 305 -97 23 -345 33 -444 18z"/>
<path d="M12590 7650 c-85 -11 -167 -38 -255 -83 -111 -57 -253 -199 -312
-312 -115 -220 -117 -486 -5 -700 38 -73 109 -166 150 -199 15 -12 21 -24 17
-35 -5 -13 -4 -14 7 -3 10 10 9 18 -5 40 -38 59 -76 141 -99 212 -20 64 -23
95 -22 215 0 124 3 149 27 220 50 151 139 277 261 369 135 103 252 145 422
153 167 8 303 -27 443 -115 29 -18 55 -31 57 -29 7 7 -114 115 -167 148 -26
18 -46 36 -43 40 3 5 -2 6 -11 3 -8 -4 -21 -2 -28 4 -27 22 -161 62 -239 72
-90 11 -115 11 -198 0z"/>
<path d="M6370 7536 c-122 -98 -562 -448 -667 -530 -56 -44 -63 -56 -34 -56
10 0 49 -15 87 -34 l68 -35 115 92 c64 51 196 156 294 235 98 79 187 148 197
155 13 8 22 33 31 82 6 38 18 96 26 128 8 32 13 60 11 61 -2 1 -59 -43 -128
-98z"/>
<path d="M7832 7604 c-260 -69 -381 -368 -246 -608 21 -37 124 -149 124 -134
0 3 -12 32 -27 64 -25 52 -28 71 -28 159 0 92 3 106 32 167 61 129 171 214
310 240 74 13 171 0 235 -33 22 -11 42 -18 44 -16 9 8 -82 94 -127 120 -91 53
-213 69 -317 41z"/>
<path d="M8515 7544 c61 -101 88 -202 88 -329 1 -196 -54 -336 -188 -471 -88
-89 -174 -143 -283 -177 -104 -33 -289 -30 -397 6 -44 14 -102 40 -129 57 -26
17 -50 29 -52 27 -3 -2 25 -32 61 -65 78 -73 198 -135 306 -158 87 -19 257
-14 330 10 220 70 386 238 455 461 26 86 26 277 0 360 -35 109 -100 220 -170
290 -48 48 -54 45 -21 -11z"/>
<path d="M5348 6701 c-209 -83 -306 -328 -209 -525 30 -61 114 -156 127 -143
4 4 2 12 -4 19 -5 7 -18 40 -27 72 -49 168 46 366 212 444 51 24 70 27 158 27
84 0 107 -4 144 -22 25 -13 46 -21 49 -19 11 11 -104 110 -156 134 -76 36
-221 42 -294 13z"/>
<path d="M6020 6680 c64 -90 106 -257 96 -380 -30 -366 -346 -629 -705 -589
-105 12 -225 54 -274 97 -29 26 -27 9 4 -25 69 -78 187 -148 300 -179 100 -27
252 -23 356 10 100 32 213 105 282 183 60 67 124 192 146 283 45 193 -15 418
-150 568 -59 64 -92 84 -55 32z"/>
<path d="M4616 4070 c-34 -38 -45 -60 -28 -60 4 0 31 -23 61 -50 l54 -49 -69
-78 c-38 -43 -71 -80 -74 -83 -3 -3 -20 -23 -39 -45 -19 -22 -70 -80 -115
-129 -45 -49 -81 -93 -81 -99 0 -5 23 -29 51 -53 l51 -44 79 87 c44 49 95 106
113 128 19 22 63 73 99 113 36 40 70 80 77 89 14 19 25 14 90 -44 26 -24 50
-43 54 -43 4 0 25 18 46 40 l40 41 -27 22 c-14 12 -96 84 -182 160 -85 75
-157 137 -159 137 -3 0 -21 -18 -41 -40z"/>
<path d="M15755 3941 c-55 -25 -103 -67 -137 -120 -23 -37 -28 -56 -28 -105 0
-82 28 -139 123 -253 85 -102 121 -132 192 -164 58 -26 130 -22 192 9 81 42
156 141 170 226 5 33 0 41 -87 140 -51 58 -97 106 -102 106 -11 0 -178 -142
-178 -153 0 -4 15 -24 34 -45 l35 -37 28 28 c16 15 34 27 40 27 16 0 83 -78
83 -96 0 -23 -67 -84 -93 -86 -65 -4 -91 13 -194 130 -122 140 -138 189 -79
248 41 41 67 43 117 8 l38 -26 50 43 c28 24 51 46 51 49 -1 9 -85 69 -113 79
-42 16 -97 13 -142 -8z"/>
<path d="M4919 3543 c-310 -397 -278 -352 -259 -363 8 -4 32 -22 54 -39 46
-37 57 -38 75 -8 23 36 125 166 132 167 4 0 17 -8 29 -18 l23 -18 -37 -133
c-21 -74 -34 -137 -29 -140 62 -51 103 -81 111 -81 10 0 33 78 69 228 17 72
17 72 50 72 72 0 143 48 190 129 35 58 37 140 4 194 -22 35 -228 207 -249 207
-5 0 -78 -89 -163 -197z m251 -16 c45 -35 54 -71 30 -118 -23 -44 -59 -71 -94
-71 -31 0 -107 53 -101 70 12 34 111 151 124 147 7 -3 26 -15 41 -28z"/>
<path d="M15380 3634 c-79 -55 -84 -35 59 -226 70 -95 127 -174 126 -176 -2
-2 -100 50 -370 199 l-49 28 -51 -36 c-27 -20 -54 -40 -58 -44 -5 -4 31 -60
80 -125 50 -66 143 -191 208 -279 65 -88 119 -162 121 -164 5 -5 114 78 114
87 0 4 -57 83 -126 176 -69 92 -124 169 -122 171 1 1 75 -38 163 -87 88 -49
182 -100 208 -114 l48 -25 54 38 c30 21 55 43 55 49 0 5 -29 48 -65 95 -35 46
-106 140 -157 209 -122 166 -188 250 -196 250 -4 -1 -23 -12 -42 -26z"/>
<path d="M5353 3208 c-147 -222 -173 -269 -173 -322 0 -75 81 -175 173 -214
46 -20 137 -15 177 9 47 29 58 42 161 195 l88 132 46 -16 c63 -20 110 -6 169
55 25 25 46 50 46 54 0 5 -17 20 -37 33 l-37 25 -17 -28 c-23 -38 -57 -61 -91
-61 -34 0 -35 6 -3 52 14 20 25 41 24 45 0 13 -100 75 -112 70 -7 -2 -75 -98
-151 -211 -77 -114 -149 -214 -160 -222 -32 -22 -71 -17 -105 15 -51 47 -53
43 127 314 71 105 131 197 135 204 5 7 -14 25 -50 47 -32 20 -60 36 -63 36 -3
0 -69 -96 -147 -212z"/>
<path d="M14933 3369 c-18 -12 -33 -22 -33 -24 0 -1 9 -22 20 -46 32 -71 29
-76 -39 -71 -68 5 -125 -16 -185 -68 -79 -70 -99 -175 -53 -288 35 -84 128
-222 182 -270 59 -51 100 -65 181 -60 54 3 72 10 121 44 78 53 108 107 108
194 0 43 -7 81 -20 110 -27 64 -137 230 -173 263 -27 26 -29 32 -21 60 5 18 6
45 3 62 -9 41 -42 115 -51 115 -4 0 -23 -10 -40 -21z m-21 -291 c33 -23 140
-178 169 -246 28 -64 25 -99 -12 -133 -23 -22 -41 -29 -70 -29 -48 0 -89 39
-163 154 -66 103 -89 160 -81 202 12 67 97 95 157 52z"/>
<path d="M6164 3194 c3 -16 10 -56 17 -90 14 -75 13 -74 73 -109 l49 -28 -8
89 c-4 49 -10 92 -13 95 -4 3 -33 21 -66 39 l-58 33 6 -29z"/>
<path d="M14495 3073 c-16 -8 -32 -17 -34 -19 -2 -2 4 -21 13 -44 20 -51 21
-94 1 -110 -18 -15 -17 -15 -39 28 -9 18 -23 35 -30 38 -8 3 -39 -9 -69 -26
l-55 -31 41 -77 c22 -42 78 -147 124 -232 83 -154 94 -191 71 -223 -19 -24
-79 -46 -103 -37 -29 11 -31 13 -150 235 -59 110 -115 212 -124 227 l-16 26
-63 -35 -63 -35 49 -92 c83 -154 123 -228 160 -296 65 -120 117 -160 207 -160
93 0 188 52 232 127 21 37 25 53 21 106 -3 55 -13 79 -87 216 l-84 154 28 20
c32 23 55 73 55 116 0 33 -37 141 -48 141 -4 -1 -20 -8 -37 -17z"/>
<path d="M6029 3004 c-71 -21 -136 -86 -200 -200 -74 -131 -89 -173 -89 -245
0 -98 49 -170 145 -215 100 -47 226 -20 294 64 41 49 139 228 153 279 10 37
16 42 47 48 25 5 50 22 84 57 26 28 47 56 47 64 0 7 -17 22 -37 33 l-37 19
-33 -44 c-19 -24 -40 -44 -46 -44 -7 0 -19 16 -26 36 -41 113 -187 184 -302
148z m138 -134 c63 -38 56 -104 -30 -256 -68 -121 -111 -164 -165 -164 -65 0
-107 57 -93 122 11 47 105 221 144 265 49 56 91 66 144 33z"/>
<path d="M6440 2628 c-186 -385 -221 -460 -218 -464 6 -6 118 -54 126 -54 4 0
21 28 37 63 104 223 155 327 161 327 3 0 4 -19 0 -42 -3 -24 -6 -133 -7 -242
l-2 -199 57 -29 c32 -16 62 -28 67 -26 11 4 299 605 299 623 0 11 -117 72
-123 64 -2 -2 -43 -87 -91 -189 -49 -102 -91 -188 -95 -192 -3 -4 -5 102 -3
235 l3 242 -57 25 c-32 14 -60 26 -64 28 -4 1 -44 -75 -90 -170z"/>
<path d="M13735 2631 c-16 -5 -50 -17 -75 -28 -60 -27 -144 -66 -148 -69 -2
-1 26 -67 61 -146 36 -78 85 -188 110 -243 91 -207 111 -245 123 -245 6 0 59
22 116 49 127 59 180 111 199 198 16 71 4 130 -52 258 -47 106 -101 175 -161
206 -45 23 -127 32 -173 20z m118 -139 c35 -31 130 -241 135 -299 4 -49 2 -55
-27 -82 -26 -24 -79 -49 -85 -39 -3 4 -178 391 -183 404 -6 16 76 44 111 38
16 -2 39 -12 49 -22z"/>
<path d="M7105 2472 c-79 -37 -142 -132 -206 -312 -29 -82 -32 -199 -6 -247
45 -83 159 -143 272 -143 78 0 111 14 130 54 22 50 95 239 92 242 -15 13 -221
84 -226 78 -5 -5 -15 -28 -24 -51 l-16 -42 44 -17 c25 -9 45 -20 45 -24 0 -19
-44 -109 -55 -114 -22 -8 -83 13 -112 39 -24 20 -28 30 -27 72 2 61 74 255
113 303 43 54 71 64 121 44 50 -20 64 -44 56 -99 l-7 -42 60 -23 c33 -12 64
-19 69 -16 16 10 23 104 11 148 -6 23 -22 56 -35 73 -58 76 -215 116 -299 77z"/>
<path d="M13125 2388 c-33 -11 -61 -22 -63 -23 -1 -1 18 -61 44 -134 25 -73
44 -134 42 -136 -2 -1 -45 -16 -96 -33 l-93 -31 -10 27 c-6 15 -26 71 -44 125
-19 53 -37 102 -40 107 -8 13 -130 -36 -129 -52 2 -16 212 -639 218 -645 5 -5
117 28 130 38 4 4 -13 67 -38 139 -25 73 -46 136 -46 140 0 12 183 72 190 62
3 -4 25 -65 49 -137 24 -71 45 -132 47 -134 5 -6 134 40 134 48 0 5 -49 153
-110 331 -60 177 -110 324 -110 326 0 6 -11 4 -75 -18z"/>
<path d="M7801 2193 c-65 -228 -59 -213 -90 -207 -25 5 -30 2 -40 -27 -16 -46
-14 -56 14 -63 14 -4 25 -11 25 -16 0 -5 -18 -71 -40 -146 -22 -76 -39 -139
-37 -140 12 -12 231 -64 271 -64 88 1 173 56 217 141 26 52 79 245 79 289 0
57 -28 137 -62 176 -39 44 -84 67 -195 99 -48 14 -95 28 -104 30 -12 4 -21
-11 -38 -72z m214 -112 c50 -28 55 -74 22 -200 -34 -132 -68 -204 -103 -220
-29 -13 -110 -6 -120 11 -10 16 39 179 53 174 6 -3 27 -8 46 -11 32 -6 35 -5
41 25 10 53 8 59 -29 66 -19 3 -37 9 -40 13 -3 6 20 96 41 160 5 16 44 8 89
-18z"/>
<path d="M11833 2226 c-28 -6 -54 -14 -58 -17 -3 -3 28 -32 69 -63 l75 -56 53
11 c29 6 55 13 57 15 8 7 -113 124 -128 123 -9 -1 -39 -6 -68 -13z"/>
<path d="M12558 2202 c-37 -10 -58 -21 -58 -31 0 -8 23 -102 50 -209 28 -107
49 -196 48 -198 -2 -2 -68 78 -147 176 -79 99 -147 182 -151 185 -11 7 -140
-25 -140 -34 0 -14 169 -663 174 -668 5 -6 109 17 127 27 13 9 14 5 -60 285
-36 133 -38 147 -19 125 11 -14 81 -100 154 -191 l133 -167 68 18 c54 14 68
22 67 36 -1 16 -35 146 -158 613 -7 25 -16 45 -21 46 -6 1 -36 -5 -67 -13z"/>
<path d="M8496 2058 c-43 -71 -336 -598 -336 -606 0 -12 132 -43 141 -34 4 4
19 32 35 62 15 30 29 57 31 59 1 2 43 -4 92 -14 l90 -19 6 -55 c3 -31 7 -65 8
-76 2 -16 16 -23 72 -36 59 -13 71 -14 73 -2 3 13 -53 615 -64 689 -4 28 -10
33 -49 43 -64 16 -83 14 -99 -11z m48 -419 c-5 -9 -114 13 -114 23 0 5 24 54
52 111 l53 102 6 -115 c4 -63 5 -118 3 -121z"/>
<path d="M11953 2058 c-29 -6 -43 -14 -43 -26 0 -19 130 -665 135 -670 7 -8
140 24 139 33 -1 6 -32 160 -70 343 l-68 332 -25 -1 c-14 -1 -45 -5 -68 -11z"/>
<path d="M8915 1986 c-13 -57 -106 -668 -103 -671 7 -7 132 -25 137 -19 3 2 6
10 7 17 1 7 23 145 48 307 25 162 48 311 52 331 l6 36 -71 10 c-68 9 -72 8
-76 -11z"/>
<path d="M11455 1973 c-49 -8 -91 -16 -93 -18 -5 -5 99 -680 106 -686 9 -9
284 36 313 51 35 18 69 51 86 84 20 39 20 141 -1 188 -16 38 -59 78 -83 78
-10 0 -5 12 14 37 58 76 28 214 -57 262 -46 25 -146 27 -285 4z m204 -117 c18
-22 31 -77 25 -103 -8 -29 -45 -50 -99 -54 l-39 -4 -13 70 c-16 93 -16 93 5
98 40 11 110 6 121 -7z m50 -275 c26 -26 36 -84 21 -120 -14 -34 -21 -38 -89
-47 -54 -7 -53 -9 -66 91 -4 28 -9 58 -11 67 -4 13 3 18 33 21 80 8 93 7 112
-12z"/>
<path d="M9400 1937 c0 -3 -11 -140 -24 -304 -14 -164 -26 -320 -28 -348 l-2
-50 71 -3 70 -4 6 54 c4 29 9 95 13 147 l7 94 100 -7 c55 -3 101 -7 102 -9 1
-1 -4 -65 -10 -142 -6 -77 -9 -143 -5 -148 3 -4 36 -10 73 -14 61 -5 67 -4 67
13 0 10 5 73 10 139 35 448 41 537 37 541 -2 3 -33 7 -69 11 l-65 6 -6 -34
c-3 -19 -9 -83 -13 -142 l-7 -109 -86 8 c-47 3 -93 8 -101 9 -17 2 -17 3 -5
173 l7 112 -33 0 c-19 0 -51 3 -71 6 -21 4 -38 4 -38 1z"/>
<path d="M10713 1895 c-62 -31 -100 -84 -120 -162 -18 -75 -8 -274 18 -358 35
-114 111 -174 221 -175 148 0 247 85 248 213 l0 47 -47 0 c-79 0 -90 -7 -96
-52 -7 -51 -33 -78 -83 -85 -51 -6 -89 22 -106 80 -6 24 -12 109 -12 195 l-1
154 28 24 c34 29 94 32 127 6 13 -11 25 -35 29 -58 6 -39 7 -39 55 -42 28 -2
61 -1 74 3 22 5 23 9 17 42 -9 51 -42 113 -76 144 -62 55 -190 66 -276 24z"/>
<path d="M10125 1881 c-46 -20 -97 -75 -122 -129 -14 -31 -17 -68 -18 -217 0
-201 4 -215 73 -287 47 -50 115 -72 196 -66 103 9 170 59 206 154 17 47 21 83
23 193 3 209 -28 289 -132 343 -66 34 -162 38 -226 9z m157 -112 c40 -22 58
-84 58 -212 0 -137 -12 -196 -47 -228 -35 -33 -94 -32 -129 2 -33 33 -43 81
-44 201 0 175 31 248 105 248 20 0 45 -5 57 -11z"/>
<path d="M8350 1330 c-46 -46 -6 -120 64 -120 47 0 76 25 76 65 0 64 -94 101
-140 55z"/>
<path d="M10172 1130 c-49 -46 -14 -120 56 -120 72 0 107 69 62 118 -27 29
-88 30 -118 2z"/>
</g>
</svg>
